<svg width="48" height="48" viewBox="0 0 48 48" fill="none" xmlns="http://www.w3.org/2000/svg">
<rect width="48" height="48" rx="24" fill="#D0D0D0"/>
<path d="M24 34.8182C20.405 34.8182 17.3737 33.6216 14.9059 31.2284C12.4382 28.8352 11.2043 25.8955 11.2043 22.4091C11.2043 18.9227 12.4382 15.983 14.9059 13.5898C17.3737 11.1966 20.405 10 24 10C27.595 10 30.6263 11.1966 33.0941 13.5898C35.5618 15.983 36.7957 18.9227 36.7957 22.4091C36.7957 25.8955 35.5618 28.8352 33.0941 31.2284C30.6263 33.6216 27.595 34.8182 24 34.8182ZM24 48C27.2294 48 30.276 47.542 33.1398 46.6261C36.0036 45.7102 38.6237 44.3955 41 42.6818C38.6237 40.9682 36.0036 39.6534 33.1398 38.7375C30.276 37.8216 27.2294 37.3636 24 37.3636C20.7706 37.3636 17.724 37.8216 14.8602 38.7375C11.9964 39.6534 9.37634 40.9682 7 42.6818C9.37634 44.3955 11.9964 45.7102 14.8602 46.6261C17.724 47.542 20.7706 48 24 48ZM24 27.7273C25.5842 27.7273 26.8943 27.225 27.9301 26.2205C28.9659 25.2159 29.4839 23.9455 29.4839 22.4091C29.4839 20.8727 28.9659 19.6023 27.9301 18.5977C26.8943 17.5932 25.5842 17.0909 24 17.0909C22.4158 17.0909 21.1057 17.5932 20.0699 18.5977C19.0341 19.6023 18.5161 20.8727 18.5161 22.4091C18.5161 23.9455 19.0341 25.2159 20.0699 26.2205C21.1057 27.225 22.4158 27.7273 24 27.7273Z" fill="#1C1B1F"/>
</svg>
