<svg width="64" height="21" viewBox="0 0 64 21" fill="none" xmlns="http://www.w3.org/2000/svg">
<path d="M0 14.0161H1.30169V6.01611H0V14.0161ZM14.6441 14.0161H15.9458V6.01611H14.6441V14.0161ZM3.57966 17.0161H4.88136V3.34945H3.57966V17.0161ZM11.0644 16.6828H12.3661V3.34945H11.0644V16.6828ZM18.2237 16.6828H19.5254V3.34945H18.2237V16.6828ZM7.15932 20.0161H8.46102V0.0161133H7.15932V20.0161Z" fill="#1E1E1E"/>
<path d="M22.5627 14.0161H23.8644V6.01611H22.5627V14.0161ZM37.2068 14.0161H38.5085V6.01611H37.2068V14.0161ZM26.1424 17.0161H27.4441V3.34945H26.1424V17.0161ZM33.6271 16.6828H34.9288V3.34945H33.6271V16.6828ZM40.7864 16.6828H42.0881V3.34945H40.7864V16.6828ZM29.722 16.6828H31.0237V6.46056H29.722V16.6828Z" fill="#1E1E1E"/>
<path d="M44.4746 14.0161H45.7763V6.01611H44.4746V14.0161ZM59.1186 14.0161H60.4203V6.01611H59.1186V14.0161ZM48.0542 20.0161H49.3559V0.0161133H48.0542V20.0161ZM55.539 16.6828H56.8407V3.34945H55.539V16.6828ZM62.6983 16.6828H64V3.34945H62.6983V16.6828ZM51.6339 13.5717H52.9356V7.34945H51.6339V13.5717Z" fill="#1E1E1E"/>
</svg>
