<svg width="30" height="31" viewBox="0 0 30 31" fill="none" xmlns="http://www.w3.org/2000/svg">
<rect y="0.583984" width="30" height="30" rx="15" fill="#0280F0"/>
<mask id="mask0_61_831" style="mask-type:alpha" maskUnits="userSpaceOnUse" x="3" y="3" width="24" height="25">
<path d="M3 3.58398H27V27.584H3V3.58398Z" fill="#D9D9D9"/>
</mask>
<g mask="url(#mask0_61_831)">
<path d="M9.45574 22.584C9.05541 22.584 8.7127 22.4414 8.42762 22.1563C8.14254 21.8713 8 21.5286 8 21.1282V10.3495C8 9.94916 8.14254 9.60645 8.42762 9.32137C8.7127 9.03627 9.05541 8.89373 9.45574 8.89373H16.4557V10.1017H9.45574C9.38347 10.1017 9.3241 10.1249 9.27763 10.1714C9.23116 10.2178 9.20793 10.2772 9.20793 10.3495V21.1282C9.20793 21.2005 9.23116 21.2599 9.27763 21.3063C9.3241 21.3528 9.38347 21.376 9.45574 21.376H20.2345C20.3068 21.376 20.3662 21.3528 20.4126 21.3063C20.4591 21.2599 20.4823 21.2005 20.4823 21.1282V14.1282H21.6903V21.1282C21.6903 21.5286 21.5477 21.8713 21.2626 22.1563C20.9775 22.4414 20.6348 22.584 20.2345 22.584H9.45574ZM19.1814 13.0132V11.4025H17.5708V10.1946H19.1814V8.58398H20.3894V10.1946H22V11.4025H20.3894V13.0132H19.1814ZM10.6173 19.5641H19.1349L16.4867 16.0331L14.2257 18.9756L12.615 16.9159L10.6173 19.5641Z" fill="white"/>
</g>
</svg>
