<svg width="30" height="31" viewBox="0 0 30 31" fill="none" xmlns="http://www.w3.org/2000/svg">
<rect y="0.0159912" width="30" height="30" rx="15" fill="#1E1E1E"/>
<mask id="mask0_61_920" style="mask-type:alpha" maskUnits="userSpaceOnUse" x="3" y="3" width="24" height="25">
<path d="M3 3.01599H27V27.016H3V3.01599Z" fill="#D9D9D9"/>
</mask>
<g mask="url(#mask0_61_920)">
<path d="M7.11926 20.016L10.8308 10.0544H12.2558L15.9961 20.016H14.5981L13.6404 17.3217H9.44616L8.49806 20.016H7.11926ZM9.87499 16.1602H13.2212L11.5885 11.5294H11.5077L9.87499 16.1602ZM19.4846 20.2813C18.7129 20.2813 18.1064 20.0785 17.6654 19.6727C17.2244 19.2669 17.0039 18.7166 17.0039 18.0217C17.0039 17.3217 17.2635 16.7525 17.7827 16.314C18.3019 15.8756 18.9769 15.6564 19.8077 15.6564C20.1718 15.6564 20.518 15.6887 20.8462 15.7535C21.1744 15.8182 21.4552 15.9173 21.6885 16.0506V15.6044C21.6885 15.0583 21.5311 14.6358 21.2164 14.3371C20.9016 14.0384 20.4552 13.889 19.8769 13.889C19.5334 13.889 19.2106 13.956 18.9087 14.09C18.6067 14.224 18.3282 14.423 18.0731 14.6871L17.2289 14.0121C17.5648 13.6198 17.952 13.3262 18.3904 13.1313C18.8289 12.9365 19.3295 12.839 19.8923 12.839C20.8744 12.839 21.618 13.0817 22.1231 13.5669C22.6282 14.0522 22.8808 14.7647 22.8808 15.7044V20.0563H21.7039V19.1294H21.6193C21.3962 19.5012 21.1029 19.7862 20.7394 19.9842C20.376 20.1823 19.9577 20.2813 19.4846 20.2813ZM19.6192 19.2621C20.2039 19.2621 20.6949 19.049 21.0923 18.6227C21.4898 18.1964 21.6885 17.6685 21.6885 17.039C21.4616 16.9057 21.1949 16.8041 20.8885 16.7342C20.5821 16.6644 20.291 16.6294 20.0154 16.6294C19.4436 16.6294 19.0016 16.7512 18.6894 16.9948C18.3773 17.2384 18.2212 17.5807 18.2212 18.0217C18.2212 18.3935 18.3494 18.6932 18.6058 18.9208C18.8622 19.1484 19.2 19.2621 19.6192 19.2621Z" fill="white"/>
</g>
</svg>
