<svg width="30" height="31" viewBox="0 0 30 31" fill="none" xmlns="http://www.w3.org/2000/svg">
<rect y="0.0159912" width="30" height="30" rx="15" fill="#01CF6C"/>
<path d="M15 19.0159C16.1153 19.0159 17.0609 18.6281 17.8365 17.8525C18.6121 17.0768 19 16.1313 19 15.016C19 13.9006 18.6121 12.9551 17.8365 12.1794C17.0609 11.4038 16.1153 11.016 15 11.016C13.8846 11.016 12.9391 11.4038 12.1635 12.1794C11.3878 12.9551 11 13.9006 11 15.016C11 16.1313 11.3878 17.0768 12.1635 17.8525C12.9391 18.6281 13.8846 19.0159 15 19.0159ZM15 16.016C14.7166 16.016 14.4791 15.9201 14.2875 15.7285C14.0958 15.5368 14 15.2993 14 15.016C14 14.7326 14.0958 14.4951 14.2875 14.3035C14.4791 14.1118 14.7166 14.016 15 14.016C15.2833 14.016 15.5208 14.1118 15.7125 14.3035C15.9041 14.4951 16 14.7326 16 15.016C16 15.2993 15.9041 15.5368 15.7125 15.7285C15.5208 15.9201 15.2833 16.016 15 16.016ZM15.0016 24.5159C13.6877 24.5159 12.4527 24.2666 11.2966 23.7679C10.1404 23.2693 9.13472 22.5925 8.2795 21.7377C7.42427 20.8828 6.74721 19.8776 6.24833 18.722C5.74944 17.5664 5.5 16.3316 5.5 15.0176C5.5 13.7037 5.74933 12.4687 6.248 11.3125C6.74667 10.1564 7.42342 9.15071 8.27825 8.29549C9.1331 7.44026 10.1383 6.7632 11.294 6.26432C12.4496 5.76543 13.6844 5.51599 14.9983 5.51599C16.3122 5.51599 17.5473 5.76533 18.7034 6.26399C19.8596 6.76266 20.8652 7.43941 21.7205 8.29424C22.5757 9.14909 23.2527 10.1543 23.7516 11.31C24.2505 12.4656 24.5 13.7004 24.5 15.0143C24.5 16.3282 24.2506 17.5633 23.752 18.7194C23.2533 19.8755 22.5765 20.8812 21.7217 21.7364C20.8669 22.5917 19.8616 23.2687 18.706 23.7676C17.5504 24.2665 16.3156 24.5159 15.0016 24.5159ZM15 23.016C17.2333 23.016 19.125 22.241 20.675 20.691C22.225 19.141 23 17.2493 23 15.016C23 12.7826 22.225 10.891 20.675 9.34097C19.125 7.79097 17.2333 7.01597 15 7.01597C12.7666 7.01597 10.875 7.79097 9.32498 9.34097C7.77498 10.891 6.99998 12.7826 6.99998 15.016C6.99998 17.2493 7.77498 19.141 9.32498 20.691C10.875 22.241 12.7666 23.016 15 23.016Z" fill="white"/>
</svg>
