<svg width="30" height="31" viewBox="0 0 30 31" fill="none" xmlns="http://www.w3.org/2000/svg">
<rect y="0.583984" width="30" height="30" rx="15" fill="#FFD600"/>
<mask id="mask0_61_829" style="mask-type:alpha" maskUnits="userSpaceOnUse" x="3" y="3" width="24" height="25">
<path d="M3 3.58398H27V27.584H3V3.58398Z" fill="#D9D9D9"/>
</mask>
<g mask="url(#mask0_61_829)">
<path d="M7.11926 20.584L10.8308 10.6224H12.2558L15.9961 20.584H14.5981L13.6404 17.8897H9.44616L8.49806 20.584H7.11926ZM9.87499 16.7282H13.2212L11.5885 12.0974H11.5077L9.87499 16.7282ZM19.4846 20.8493C18.7129 20.8493 18.1064 20.6465 17.6654 20.2407C17.2244 19.8349 17.0039 19.2846 17.0039 18.5897C17.0039 17.8897 17.2635 17.3205 17.7827 16.882C18.3019 16.4436 18.9769 16.2244 19.8077 16.2244C20.1718 16.2244 20.518 16.2567 20.8462 16.3215C21.1744 16.3862 21.4552 16.4853 21.6885 16.6186V16.1724C21.6885 15.6263 21.5311 15.2038 21.2164 14.9051C20.9016 14.6064 20.4552 14.457 19.8769 14.457C19.5334 14.457 19.2106 14.524 18.9087 14.658C18.6067 14.792 18.3282 14.991 18.0731 15.2551L17.2289 14.5801C17.5648 14.1878 17.952 13.8942 18.3904 13.6993C18.8289 13.5045 19.3295 13.407 19.8923 13.407C20.8744 13.407 21.618 13.6497 22.1231 14.1349C22.6282 14.6202 22.8808 15.3327 22.8808 16.2724V20.6243H21.7039V19.6974H21.6193C21.3962 20.0692 21.1029 20.3542 20.7394 20.5522C20.376 20.7503 19.9577 20.8493 19.4846 20.8493ZM19.6192 19.8301C20.2039 19.8301 20.6949 19.617 21.0923 19.1907C21.4898 18.7644 21.6885 18.2365 21.6885 17.607C21.4616 17.4737 21.1949 17.3721 20.8885 17.3022C20.5821 17.2324 20.291 17.1974 20.0154 17.1974C19.4436 17.1974 19.0016 17.3192 18.6894 17.5628C18.3773 17.8064 18.2212 18.1487 18.2212 18.5897C18.2212 18.9615 18.3494 19.2612 18.6058 19.4888C18.8622 19.7164 19.2 19.8301 19.6192 19.8301Z" fill="white"/>
</g>
</svg>
