<svg width="30" height="31" viewBox="0 0 30 31" fill="none" xmlns="http://www.w3.org/2000/svg">
<rect y="0.583984" width="30" height="30" rx="15" fill="#FF535E"/>
<path d="M15 19.5839C16.1153 19.5839 17.0609 19.1961 17.8365 18.4205C18.6121 17.6448 19 16.6993 19 15.584C19 14.4686 18.6121 13.5231 17.8365 12.7474C17.0609 11.9718 16.1153 11.584 15 11.584C13.8846 11.584 12.9391 11.9718 12.1635 12.7474C11.3878 13.5231 11 14.4686 11 15.584C11 16.6993 11.3878 17.6448 12.1635 18.4205C12.9391 19.1961 13.8846 19.5839 15 19.5839ZM15 16.584C14.7166 16.584 14.4791 16.4881 14.2875 16.2965C14.0958 16.1048 14 15.8673 14 15.584C14 15.3006 14.0958 15.0631 14.2875 14.8715C14.4791 14.6798 14.7166 14.584 15 14.584C15.2833 14.584 15.5208 14.6798 15.7125 14.8715C15.9041 15.0631 16 15.3006 16 15.584C16 15.8673 15.9041 16.1048 15.7125 16.2965C15.5208 16.4881 15.2833 16.584 15 16.584ZM15.0016 25.0839C13.6877 25.0839 12.4527 24.8346 11.2966 24.3359C10.1404 23.8373 9.13472 23.1605 8.2795 22.3057C7.42427 21.4508 6.74721 20.4456 6.24833 19.29C5.74944 18.1343 5.5 16.8996 5.5 15.5856C5.5 14.2717 5.74933 13.0367 6.248 11.8805C6.74667 10.7244 7.42342 9.7187 8.27825 8.86349C9.1331 8.00825 10.1383 7.33119 11.294 6.83231C12.4496 6.33343 13.6844 6.08398 14.9983 6.08398C16.3122 6.08398 17.5473 6.33332 18.7034 6.83199C19.8596 7.33065 20.8652 8.0074 21.7205 8.86223C22.5757 9.71708 23.2527 10.7223 23.7516 11.878C24.2505 13.0336 24.5 14.2684 24.5 15.5823C24.5 16.8962 24.2506 18.1313 23.752 19.2874C23.2533 20.4435 22.5765 21.4492 21.7217 22.3044C20.8669 23.1597 19.8616 23.8367 18.706 24.3356C17.5504 24.8345 16.3156 25.0839 15.0016 25.0839ZM15 23.584C17.2333 23.584 19.125 22.809 20.675 21.259C22.225 19.709 23 17.8173 23 15.584C23 13.3506 22.225 11.459 20.675 9.90896C19.125 8.35896 17.2333 7.58396 15 7.58396C12.7666 7.58396 10.875 8.35896 9.32498 9.90896C7.77498 11.459 6.99998 13.3506 6.99998 15.584C6.99998 17.8173 7.77498 19.709 9.32498 21.259C10.875 22.809 12.7666 23.584 15 23.584Z" fill="white"/>
</svg>
