<svg width="30" height="31" viewBox="0 0 30 31" fill="none" xmlns="http://www.w3.org/2000/svg">
<rect y="0.0159912" width="30" height="30" rx="15" fill="#01CF6C"/>
<mask id="mask0_61_895" style="mask-type:alpha" maskUnits="userSpaceOnUse" x="3" y="3" width="24" height="25">
<path d="M3 3.01599H27V27.016H3V3.01599Z" fill="#D9D9D9"/>
</mask>
<g mask="url(#mask0_61_895)">
<path d="M9.45574 22.016C9.05541 22.016 8.7127 21.8734 8.42762 21.5884C8.14254 21.3033 8 20.9606 8 20.5602V9.7815C8 9.38116 8.14254 9.03845 8.42762 8.75337C8.7127 8.46828 9.05541 8.32573 9.45574 8.32573H16.4557V9.53368H9.45574C9.38347 9.53368 9.3241 9.55691 9.27763 9.60338C9.23116 9.64985 9.20793 9.70922 9.20793 9.7815V20.5602C9.20793 20.6325 9.23116 20.6919 9.27763 20.7383C9.3241 20.7848 9.38347 20.808 9.45574 20.808H20.2345C20.3068 20.808 20.3662 20.7848 20.4126 20.7383C20.4591 20.6919 20.4823 20.6325 20.4823 20.5602V13.5602H21.6903V20.5602C21.6903 20.9606 21.5477 21.3033 21.2626 21.5884C20.9775 21.8734 20.6348 22.016 20.2345 22.016H9.45574ZM19.1814 12.4452V10.8345H17.5708V9.62661H19.1814V8.01599H20.3894V9.62661H22V10.8345H20.3894V12.4452H19.1814ZM10.6173 18.9961H19.1349L16.4867 15.4651L14.2257 18.4076L12.615 16.3479L10.6173 18.9961Z" fill="white"/>
</g>
</svg>
